# xmcd CD database file
#
# Track frame offsets:
#	150
#	14862
#	31297
#	48650
#	64167
#	83250
#	103812
#	125580
#	141962
#	158302
#
# Disc length: 2360 seconds
#
# Revision: 0
# Processed by: cddbd v1.5PL3 Copyright (c) Steve Scherf et al.
# Submitted via: CDex 1.50beta9
#
DISCID=8109360a
DTITLE=五輪真弓 - 残り火
DYEAR=1978
DGENRE=JPop
TTITLE0=さよならだけは言わないで
TTITLE1=残り火
TTITLE2=恋愛ともだち
TTITLE3=相思草
TTITLE4=夜汽車
TTITLE5=しあわせはローソクの灯
TTITLE6=しおり
TTITLE7=海辺にて
TTITLE8=こころ
TTITLE9=一葉舟
EXTD=YEAR: 1978
EXTT0=
EXTT1=
EXTT2=
EXTT3=
EXTT4=
EXTT5=
EXTT6=
EXTT7=
EXTT8=
EXTT9=
PLAYORDER=
